<svg viewBox="0 0 340 100" xmlns="http://www.w3.org/2000/svg" fill="none" role="img" aria-label="LexCRM">
  <path d="M26 20 H74 Q80 20 80 26 V54 Q80 76 50 90 Q20 76 20 54 V26 Q20 20 26 20 Z"
        stroke="#ffffff" stroke-width="5" stroke-linejoin="round"/>
  <g stroke="#ffffff" stroke-width="3.4" stroke-linecap="round">
    <path d="M50 32 V48"/>
    <path d="M50 53 L39 62"/>
    <path d="M39 65 L32 73"/>
    <path d="M51 54 L62 70"/>
    <path d="M52 51 L70 39"/>
    <path d="M70 39 L61 39"/>
    <path d="M70 39 L70 48"/>
  </g>
  <g fill="#ffffff">
    <circle cx="50" cy="28" r="5"/>
    <circle cx="50" cy="51" r="4"/>
    <circle cx="39" cy="63" r="4"/>
    <circle cx="31" cy="74" r="4"/>
    <circle cx="63" cy="71" r="4.5"/>
  </g>
  <text x="104" y="65" font-family="Arial, Helvetica, sans-serif" font-size="42" font-weight="700" fill="#ffffff">LexCRM</text>
</svg>
